<svg width="349" height="242" viewBox="0 0 349 242" fill="none" xmlns="http://www.w3.org/2000/svg">
<path d="M5.82386 137.466V121.415C14.0625 121.415 19.768 119.781 22.9403 116.514C26.16 113.247 27.7699 108.062 27.7699 100.96V87.5369C27.7699 78.0199 29.1667 70.5388 31.9602 65.0938C34.8011 59.6487 38.66 55.6477 43.5369 53.0909C48.4612 50.5341 54.143 48.9242 60.5824 48.2614C67.0218 47.5511 73.8636 47.196 81.108 47.196V72.6932C75.4261 72.6932 71.1648 73.3797 68.3239 74.7528C65.5303 76.1259 63.66 78.2093 62.7131 81.0028C61.7661 83.7964 61.2926 87.3239 61.2926 91.5852V109.767C61.2926 113.366 60.5587 116.822 59.0909 120.136C57.6231 123.451 54.9242 126.41 50.9943 129.014C47.0644 131.618 41.4536 133.678 34.1619 135.193C26.9176 136.708 17.4716 137.466 5.82386 137.466ZM81.108 226.244C73.8636 226.244 67.0218 225.889 60.5824 225.179C54.143 224.516 48.4612 222.906 43.5369 220.349C38.66 217.793 34.8011 213.792 31.9602 208.347C29.1667 202.902 27.7699 195.42 27.7699 185.903V172.551C27.7699 165.402 26.16 160.217 22.9403 156.997C19.768 153.73 14.0625 152.097 5.82386 152.097V135.974C17.4716 135.974 26.9176 136.756 34.1619 138.318C41.4536 139.833 47.0644 141.893 50.9943 144.497C54.9242 147.054 57.6231 149.99 59.0909 153.304C60.5587 156.618 61.2926 160.075 61.2926 163.673V181.855C61.2926 186.116 61.7661 189.644 62.7131 192.438C63.66 195.231 65.5303 197.314 68.3239 198.688C71.1648 200.061 75.4261 200.747 81.108 200.747V226.244ZM5.82386 152.097V121.415H34.1619V152.097H5.82386Z" fill="#0597E6"/>
<path d="M343.119 135.974V152.097C334.928 152.097 329.223 153.73 326.003 156.997C322.783 160.217 321.173 165.402 321.173 172.551V185.903C321.173 195.42 319.753 202.902 316.912 208.347C314.118 213.792 310.259 217.793 305.335 220.349C300.458 222.906 294.8 224.516 288.361 225.179C281.969 225.889 275.127 226.244 267.835 226.244V200.747C273.517 200.747 277.755 200.061 280.548 198.688C283.389 197.314 285.283 195.231 286.23 192.438C287.177 189.644 287.651 186.116 287.651 181.855V163.673C287.651 160.075 288.384 156.618 289.852 153.304C291.32 149.99 294.019 147.054 297.949 144.497C301.879 141.893 307.466 139.833 314.71 138.318C322.002 136.756 331.472 135.974 343.119 135.974ZM267.835 47.196C275.127 47.196 281.969 47.5511 288.361 48.2614C294.8 48.9242 300.458 50.5341 305.335 53.0909C310.259 55.6477 314.118 59.6487 316.912 65.0938C319.753 70.5388 321.173 78.0199 321.173 87.5369V100.96C321.173 108.062 322.783 113.247 326.003 116.514C329.223 119.781 334.928 121.415 343.119 121.415V137.466C331.472 137.466 322.002 136.708 314.71 135.193C307.466 133.678 301.879 131.618 297.949 129.014C294.019 126.41 291.32 123.451 289.852 120.136C288.384 116.822 287.651 113.366 287.651 109.767V91.5852C287.651 87.3239 287.177 83.7964 286.23 81.0028C285.283 78.2093 283.389 76.1259 280.548 74.7528C277.755 73.3797 273.517 72.6932 267.835 72.6932V47.196ZM343.119 121.415V152.097H314.781V121.415H343.119Z" fill="#0597E6"/>
<rect x="108" y="149" width="132" height="55" fill="#E8F0F2"/>
<rect x="208" y="79" width="32" height="55" fill="#053742"/>
<rect x="108" y="79" width="82" height="55" fill="#A2DBFA"/>
</svg>
